<mxfile host="65bd71144e">
    <diagram id="SJrbAc279IfHiTuQCD1p" name="Page-1">
        <mxGraphModel dx="1293" dy="1139" grid="0" gridSize="10" guides="1" tooltips="1" connect="1" arrows="1" fold="1" page="0" pageScale="1" pageWidth="827" pageHeight="1169" math="0" shadow="0">
            <root>
                <mxCell id="0"/>
                <mxCell id="1" parent="0"/>
                <mxCell id="4" style="edgeStyle=orthogonalEdgeStyle;html=1;exitX=0.5;exitY=0;exitDx=0;exitDy=0;entryX=0.5;entryY=1;entryDx=0;entryDy=0;" parent="1" source="2" target="163" edge="1">
                    <mxGeometry relative="1" as="geometry">
                        <Array as="points"/>
                    </mxGeometry>
                </mxCell>
                <mxCell id="232" value="@click" style="edgeLabel;html=1;align=center;verticalAlign=middle;resizable=0;points=[];" vertex="1" connectable="0" parent="4">
                    <mxGeometry x="-0.8791" y="7" relative="1" as="geometry">
                        <mxPoint x="9" y="12" as="offset"/>
                    </mxGeometry>
                </mxCell>
                <mxCell id="117" style="edgeStyle=orthogonalEdgeStyle;rounded=1;html=1;exitX=1;exitY=0.5;exitDx=0;exitDy=0;entryX=0;entryY=0.5;entryDx=0;entryDy=0;shadow=0;labelBackgroundColor=default;fontFamily=Helvetica;fontSize=11;fontColor=default;endArrow=classic;endFill=1;strokeColor=#FFFFFF;strokeWidth=1;" parent="1" source="2" target="6" edge="1">
                    <mxGeometry relative="1" as="geometry">
                        <Array as="points">
                            <mxPoint x="260" y="600"/>
                            <mxPoint x="260" y="800"/>
                        </Array>
                    </mxGeometry>
                </mxCell>
                <mxCell id="118" value="@focus" style="edgeLabel;html=1;align=center;verticalAlign=middle;resizable=0;points=[];fontSize=11;fontFamily=Helvetica;fontColor=default;rotation=-91;" parent="117" vertex="1" connectable="0">
                    <mxGeometry x="-0.6036" y="-2" relative="1" as="geometry">
                        <mxPoint x="2" y="5" as="offset"/>
                    </mxGeometry>
                </mxCell>
                <mxCell id="161" style="edgeStyle=orthogonalEdgeStyle;html=1;exitX=0;exitY=0;exitDx=0;exitDy=0;entryX=0.5;entryY=0;entryDx=0;entryDy=0;" parent="1" source="2" target="171" edge="1">
                    <mxGeometry relative="1" as="geometry">
                        <Array as="points">
                            <mxPoint x="172" y="520"/>
                            <mxPoint x="-20" y="520"/>
                        </Array>
                    </mxGeometry>
                </mxCell>
                <mxCell id="162" value="@clear" style="edgeLabel;html=1;align=center;verticalAlign=middle;resizable=0;points=[];" parent="161" vertex="1" connectable="0">
                    <mxGeometry x="-0.8676" y="1" relative="1" as="geometry">
                        <mxPoint x="-11" y="5" as="offset"/>
                    </mxGeometry>
                </mxCell>
                <mxCell id="2" value="IDLE" style="ellipse;whiteSpace=wrap;html=1;aspect=fixed;" parent="1" vertex="1">
                    <mxGeometry x="160" y="560" width="80" height="80" as="geometry"/>
                </mxCell>
                <mxCell id="21" style="edgeStyle=orthogonalEdgeStyle;html=1;exitX=0;exitY=0;exitDx=0;exitDy=0;entryX=0.5;entryY=0;entryDx=0;entryDy=0;" parent="1" source="3" target="129" edge="1">
                    <mxGeometry relative="1" as="geometry">
                        <Array as="points">
                            <mxPoint x="313" y="349"/>
                            <mxPoint x="313" y="365"/>
                            <mxPoint x="80" y="365"/>
                        </Array>
                    </mxGeometry>
                </mxCell>
                <mxCell id="22" value="@blur" style="edgeLabel;html=1;align=center;verticalAlign=middle;resizable=0;points=[];" parent="21" vertex="1" connectable="0">
                    <mxGeometry x="-0.25" y="1" relative="1" as="geometry">
                        <mxPoint x="115" y="-1" as="offset"/>
                    </mxGeometry>
                </mxCell>
                <mxCell id="78" value="@input" style="edgeStyle=orthogonalEdgeStyle;html=1;exitX=0.5;exitY=1;exitDx=0;exitDy=0;entryX=0.5;entryY=0;entryDx=0;entryDy=0;" parent="1" source="3" target="16" edge="1">
                    <mxGeometry x="-0.7621" y="7" relative="1" as="geometry">
                        <Array as="points">
                            <mxPoint x="360" y="431"/>
                            <mxPoint x="333" y="431"/>
                            <mxPoint x="333" y="573"/>
                            <mxPoint x="360" y="573"/>
                        </Array>
                        <mxPoint as="offset"/>
                    </mxGeometry>
                </mxCell>
                <mxCell id="82" style="edgeStyle=orthogonalEdgeStyle;html=1;exitX=1;exitY=0.5;exitDx=0;exitDy=0;entryX=0;entryY=0.5;entryDx=0;entryDy=0;" parent="1" source="3" target="27" edge="1">
                    <mxGeometry relative="1" as="geometry">
                        <Array as="points">
                            <mxPoint x="400" y="365"/>
                            <mxPoint x="423" y="365"/>
                            <mxPoint x="423" y="255"/>
                        </Array>
                    </mxGeometry>
                </mxCell>
                <mxCell id="83" value="@up" style="edgeLabel;html=1;align=center;verticalAlign=middle;resizable=0;points=[];" parent="82" vertex="1" connectable="0">
                    <mxGeometry x="0.2962" relative="1" as="geometry">
                        <mxPoint x="-184" y="100" as="offset"/>
                    </mxGeometry>
                </mxCell>
                <mxCell id="84" style="edgeStyle=orthogonalEdgeStyle;html=1;exitX=1;exitY=0.5;exitDx=0;exitDy=0;entryX=0;entryY=0.5;entryDx=0;entryDy=0;" parent="1" source="3" target="40" edge="1">
                    <mxGeometry relative="1" as="geometry">
                        <Array as="points">
                            <mxPoint x="400" y="155"/>
                        </Array>
                    </mxGeometry>
                </mxCell>
                <mxCell id="85" value="@down" style="edgeLabel;html=1;align=center;verticalAlign=middle;resizable=0;points=[];" parent="84" vertex="1" connectable="0">
                    <mxGeometry x="0.4381" y="2" relative="1" as="geometry">
                        <mxPoint x="-228" y="157" as="offset"/>
                    </mxGeometry>
                </mxCell>
                <mxCell id="119" style="edgeStyle=orthogonalEdgeStyle;rounded=1;html=1;exitX=1;exitY=0.5;exitDx=0;exitDy=0;shadow=0;labelBackgroundColor=default;fontFamily=Helvetica;fontSize=11;fontColor=default;endArrow=classic;endFill=1;strokeColor=#FFFFFF;strokeWidth=1;entryX=0;entryY=0.5;entryDx=0;entryDy=0;" parent="1" source="3" target="178" edge="1">
                    <mxGeometry relative="1" as="geometry">
                        <Array as="points">
                            <mxPoint x="1022" y="377"/>
                            <mxPoint x="1022" y="700"/>
                        </Array>
                    </mxGeometry>
                </mxCell>
                <mxCell id="145" value="@item click" style="edgeLabel;html=1;align=center;verticalAlign=middle;resizable=0;points=[];" parent="119" vertex="1" connectable="0">
                    <mxGeometry x="-0.7" y="-1" relative="1" as="geometry">
                        <mxPoint x="-113" y="-1" as="offset"/>
                    </mxGeometry>
                </mxCell>
                <mxCell id="158" style="edgeStyle=orthogonalEdgeStyle;html=1;exitX=0;exitY=0;exitDx=0;exitDy=0;entryX=0;entryY=0;entryDx=0;entryDy=0;" parent="1" source="3" target="151" edge="1">
                    <mxGeometry relative="1" as="geometry">
                        <Array as="points">
                            <mxPoint x="-80" y="349"/>
                        </Array>
                    </mxGeometry>
                </mxCell>
                <mxCell id="159" value="@clear" style="edgeLabel;html=1;align=center;verticalAlign=middle;resizable=0;points=[];" parent="158" vertex="1" connectable="0">
                    <mxGeometry x="-0.8788" y="-3" relative="1" as="geometry">
                        <mxPoint as="offset"/>
                    </mxGeometry>
                </mxCell>
                <mxCell id="204" style="edgeStyle=orthogonalEdgeStyle;html=1;exitX=1;exitY=0.5;exitDx=0;exitDy=0;entryX=0;entryY=0.5;entryDx=0;entryDy=0;" parent="1" source="3" target="182" edge="1">
                    <mxGeometry relative="1" as="geometry">
                        <Array as="points">
                            <mxPoint x="400" y="390"/>
                            <mxPoint x="674" y="390"/>
                            <mxPoint x="674" y="892"/>
                        </Array>
                    </mxGeometry>
                </mxCell>
                <mxCell id="205" value="@enter" style="edgeLabel;html=1;align=center;verticalAlign=middle;resizable=0;points=[];" parent="204" vertex="1" connectable="0">
                    <mxGeometry x="-0.9324" y="-3" relative="1" as="geometry">
                        <mxPoint x="3" y="-3" as="offset"/>
                    </mxGeometry>
                </mxCell>
                <mxCell id="229" style="edgeStyle=orthogonalEdgeStyle;html=1;exitX=0;exitY=0.5;exitDx=0;exitDy=0;entryX=0;entryY=0.5;entryDx=0;entryDy=0;" parent="1" source="3" target="6" edge="1">
                    <mxGeometry relative="1" as="geometry">
                        <Array as="points">
                            <mxPoint x="283" y="377"/>
                            <mxPoint x="283" y="800"/>
                        </Array>
                    </mxGeometry>
                </mxCell>
                <mxCell id="230" value="@escape" style="edgeLabel;html=1;align=center;verticalAlign=middle;resizable=0;points=[];" parent="229" vertex="1" connectable="0">
                    <mxGeometry x="-0.7346" relative="1" as="geometry">
                        <mxPoint y="-12" as="offset"/>
                    </mxGeometry>
                </mxCell>
                <mxCell id="3" value="S2" style="ellipse;whiteSpace=wrap;html=1;aspect=fixed;" parent="1" vertex="1">
                    <mxGeometry x="320" y="337" width="80" height="80" as="geometry"/>
                </mxCell>
                <mxCell id="19" style="edgeStyle=orthogonalEdgeStyle;html=1;exitX=0;exitY=1;exitDx=0;exitDy=0;entryX=0.5;entryY=1;entryDx=0;entryDy=0;" parent="1" source="6" target="129" edge="1">
                    <mxGeometry relative="1" as="geometry">
                        <Array as="points">
                            <mxPoint x="330" y="828"/>
                            <mxPoint x="330" y="880"/>
                            <mxPoint x="80" y="880"/>
                        </Array>
                    </mxGeometry>
                </mxCell>
                <mxCell id="20" value="@blur" style="edgeLabel;html=1;align=center;verticalAlign=middle;resizable=0;points=[];" parent="19" vertex="1" connectable="0">
                    <mxGeometry x="-0.1167" y="1" relative="1" as="geometry">
                        <mxPoint x="177" y="-41" as="offset"/>
                    </mxGeometry>
                </mxCell>
                <mxCell id="92" style="edgeStyle=orthogonalEdgeStyle;rounded=1;html=1;exitX=0.5;exitY=0;exitDx=0;exitDy=0;entryX=0.5;entryY=1;entryDx=0;entryDy=0;shadow=1;labelBackgroundColor=default;fontFamily=Helvetica;fontSize=11;fontColor=default;endArrow=classic;endFill=1;strokeColor=default;strokeWidth=1;" parent="1" source="6" target="16" edge="1">
                    <mxGeometry relative="1" as="geometry"/>
                </mxCell>
                <mxCell id="93" value="@input" style="edgeLabel;html=1;align=center;verticalAlign=middle;resizable=0;points=[];fontSize=11;fontFamily=Helvetica;fontColor=default;rotation=-90;" parent="92" vertex="1" connectable="0">
                    <mxGeometry x="-0.0333" y="-1" relative="1" as="geometry">
                        <mxPoint x="-1" y="14" as="offset"/>
                    </mxGeometry>
                </mxCell>
                <mxCell id="136" style="edgeStyle=orthogonalEdgeStyle;html=1;exitX=1;exitY=0;exitDx=0;exitDy=0;entryX=0;entryY=0.5;entryDx=0;entryDy=0;" parent="1" source="6" target="40" edge="1">
                    <mxGeometry relative="1" as="geometry">
                        <Array as="points">
                            <mxPoint x="388" y="744"/>
                            <mxPoint x="749" y="744"/>
                            <mxPoint x="749" y="155"/>
                        </Array>
                    </mxGeometry>
                </mxCell>
                <mxCell id="138" value="@down" style="edgeLabel;html=1;align=center;verticalAlign=middle;resizable=0;points=[];" parent="136" vertex="1" connectable="0">
                    <mxGeometry x="-0.7677" y="-3" relative="1" as="geometry">
                        <mxPoint x="-69" y="-2" as="offset"/>
                    </mxGeometry>
                </mxCell>
                <mxCell id="156" style="edgeStyle=orthogonalEdgeStyle;html=1;exitX=0.5;exitY=1;exitDx=0;exitDy=0;entryX=0.5;entryY=1;entryDx=0;entryDy=0;" parent="1" source="6" target="151" edge="1">
                    <mxGeometry relative="1" as="geometry">
                        <Array as="points">
                            <mxPoint x="360" y="940"/>
                            <mxPoint x="-40" y="940"/>
                        </Array>
                    </mxGeometry>
                </mxCell>
                <mxCell id="157" value="@clear" style="edgeLabel;html=1;align=center;verticalAlign=middle;resizable=0;points=[];" parent="156" vertex="1" connectable="0">
                    <mxGeometry x="-0.9059" y="2" relative="1" as="geometry">
                        <mxPoint x="-2" y="-22" as="offset"/>
                    </mxGeometry>
                </mxCell>
                <mxCell id="201" style="edgeStyle=orthogonalEdgeStyle;html=1;exitX=1;exitY=0;exitDx=0;exitDy=0;entryX=0;entryY=0.5;entryDx=0;entryDy=0;" parent="1" source="6" target="27" edge="1">
                    <mxGeometry relative="1" as="geometry">
                        <Array as="points">
                            <mxPoint x="709" y="772"/>
                            <mxPoint x="709" y="255"/>
                        </Array>
                    </mxGeometry>
                </mxCell>
                <mxCell id="202" value="@up" style="edgeLabel;html=1;align=center;verticalAlign=middle;resizable=0;points=[];" parent="201" vertex="1" connectable="0">
                    <mxGeometry x="-0.9037" y="-2" relative="1" as="geometry">
                        <mxPoint x="-24" y="-3" as="offset"/>
                    </mxGeometry>
                </mxCell>
                <mxCell id="233" style="edgeStyle=none;html=1;exitX=0;exitY=0;exitDx=0;exitDy=0;entryX=0.5;entryY=1;entryDx=0;entryDy=0;" edge="1" parent="1" source="6" target="163">
                    <mxGeometry relative="1" as="geometry">
                        <mxPoint x="236.47368421052647" y="287.3157894736844" as="targetPoint"/>
                    </mxGeometry>
                </mxCell>
                <mxCell id="234" value="Text" style="edgeLabel;html=1;align=center;verticalAlign=middle;resizable=0;points=[];" vertex="1" connectable="0" parent="233">
                    <mxGeometry x="-0.8952" y="-1" relative="1" as="geometry">
                        <mxPoint as="offset"/>
                    </mxGeometry>
                </mxCell>
                <mxCell id="6" value="S1" style="ellipse;whiteSpace=wrap;html=1;aspect=fixed;" parent="1" vertex="1">
                    <mxGeometry x="320" y="760" width="80" height="80" as="geometry"/>
                </mxCell>
                <mxCell id="223" style="edgeStyle=orthogonalEdgeStyle;html=1;exitX=1;exitY=0.5;exitDx=0;exitDy=0;entryX=0.5;entryY=1;entryDx=0;entryDy=0;endArrow=classic;endFill=1;strokeWidth=1;" parent="1" source="16" target="221" edge="1">
                    <mxGeometry relative="1" as="geometry"/>
                </mxCell>
                <mxCell id="16" value="filter items" style="rounded=0;whiteSpace=wrap;html=1;fontFamily=Helvetica;fontSize=12;fontColor=rgb(240, 240, 240);align=center;strokeColor=rgb(240, 240, 240);fillColor=rgb(42, 42, 42);" parent="1" vertex="1">
                    <mxGeometry x="320" y="590" width="80" height="80" as="geometry"/>
                </mxCell>
                <mxCell id="105" style="edgeStyle=orthogonalEdgeStyle;rounded=1;html=1;exitX=1;exitY=0.5;exitDx=0;exitDy=0;entryX=0;entryY=0.5;entryDx=0;entryDy=0;shadow=1;labelBackgroundColor=default;fontFamily=Helvetica;fontSize=11;fontColor=default;endArrow=classic;endFill=1;strokeColor=#FFFFFF;strokeWidth=1;" parent="1" source="27" target="104" edge="1">
                    <mxGeometry relative="1" as="geometry"/>
                </mxCell>
                <mxCell id="27" value="if filtereditems is empty -&amp;gt;&lt;br&gt;filtereditems = items&amp;nbsp;" style="rounded=0;whiteSpace=wrap;html=1;fontFamily=Helvetica;fontSize=12;fontColor=rgb(240, 240, 240);align=center;strokeColor=rgb(240, 240, 240);fillColor=rgb(42, 42, 42);" parent="1" vertex="1">
                    <mxGeometry x="785" y="215" width="90" height="80" as="geometry"/>
                </mxCell>
                <mxCell id="90" style="html=1;exitX=0.5;exitY=1;exitDx=0;exitDy=0;exitPerimeter=0;shadow=1;dashed=1;endArrow=none;endFill=0;strokeWidth=2;entryX=0.5;entryY=0;entryDx=0;entryDy=0;" parent="1" source="36" target="104" edge="1">
                    <mxGeometry relative="1" as="geometry"/>
                </mxCell>
                <mxCell id="36" value="start at last highlighted item or selected item or at first one if non selected &amp;amp; dont move if S1 is previous State" style="shape=note2;boundedLbl=1;whiteSpace=wrap;html=1;size=25;verticalAlign=top;align=center;" parent="1" vertex="1">
                    <mxGeometry x="436" y="-92" width="189" height="104" as="geometry"/>
                </mxCell>
                <mxCell id="106" style="edgeStyle=orthogonalEdgeStyle;rounded=1;html=1;exitX=1;exitY=0.5;exitDx=0;exitDy=0;entryX=0;entryY=0.5;entryDx=0;entryDy=0;shadow=1;labelBackgroundColor=default;fontFamily=Helvetica;fontSize=11;fontColor=default;endArrow=classic;endFill=1;strokeColor=#FFFFFF;strokeWidth=1;" parent="1" source="40" target="103" edge="1">
                    <mxGeometry relative="1" as="geometry"/>
                </mxCell>
                <mxCell id="40" value="if filtereditems is empty -&amp;gt;&lt;br&gt;filtereditems = items&amp;nbsp;" style="rounded=0;whiteSpace=wrap;html=1;fontFamily=Helvetica;fontSize=12;fontColor=rgb(240, 240, 240);align=center;strokeColor=rgb(240, 240, 240);fillColor=rgb(42, 42, 42);" parent="1" vertex="1">
                    <mxGeometry x="785" y="115" width="90" height="80" as="geometry"/>
                </mxCell>
                <mxCell id="45" value="" style="endArrow=none;dashed=1;html=1;strokeWidth=2;entryX=0.5;entryY=0;entryDx=0;entryDy=0;" parent="1" source="36" target="103" edge="1">
                    <mxGeometry width="50" height="50" relative="1" as="geometry">
                        <mxPoint x="915" y="748" as="sourcePoint"/>
                        <mxPoint x="965" y="698" as="targetPoint"/>
                        <Array as="points"/>
                    </mxGeometry>
                </mxCell>
                <mxCell id="73" style="edgeStyle=orthogonalEdgeStyle;html=1;exitX=0;exitY=0.5;exitDx=0;exitDy=0;entryX=1;entryY=0.75;entryDx=0;entryDy=0;" parent="1" source="68" target="16" edge="1">
                    <mxGeometry relative="1" as="geometry"/>
                </mxCell>
                <mxCell id="74" value="@input" style="edgeLabel;html=1;align=center;verticalAlign=middle;resizable=0;points=[];" parent="73" vertex="1" connectable="0">
                    <mxGeometry x="-0.5706" relative="1" as="geometry">
                        <mxPoint x="64" y="-2" as="offset"/>
                    </mxGeometry>
                </mxCell>
                <mxCell id="76" style="edgeStyle=orthogonalEdgeStyle;html=1;exitX=0.5;exitY=1;exitDx=0;exitDy=0;entryX=0;entryY=0.5;entryDx=0;entryDy=0;" parent="1" source="68" target="178" edge="1">
                    <mxGeometry relative="1" as="geometry">
                        <mxPoint x="829.9999999999998" y="751" as="targetPoint"/>
                    </mxGeometry>
                </mxCell>
                <mxCell id="177" value="@item click" style="edgeLabel;html=1;align=center;verticalAlign=middle;resizable=0;points=[];" parent="76" vertex="1" connectable="0">
                    <mxGeometry x="-0.1304" y="-1" relative="1" as="geometry">
                        <mxPoint x="-63" y="-1" as="offset"/>
                    </mxGeometry>
                </mxCell>
                <mxCell id="99" style="edgeStyle=orthogonalEdgeStyle;rounded=1;html=1;exitX=0.5;exitY=0;exitDx=0;exitDy=0;entryX=0.5;entryY=1;entryDx=0;entryDy=0;shadow=1;labelBackgroundColor=default;fontFamily=Helvetica;fontSize=11;fontColor=default;endArrow=classic;endFill=1;strokeColor=#FFFFFF;strokeWidth=1;" parent="1" source="68" target="27" edge="1">
                    <mxGeometry relative="1" as="geometry"/>
                </mxCell>
                <mxCell id="100" value="@arrow up" style="edgeLabel;html=1;align=center;verticalAlign=middle;resizable=0;points=[];fontSize=11;fontFamily=Helvetica;fontColor=default;" parent="99" vertex="1" connectable="0">
                    <mxGeometry x="0.45" y="-1" relative="1" as="geometry">
                        <mxPoint x="-7" y="212" as="offset"/>
                    </mxGeometry>
                </mxCell>
                <mxCell id="101" style="edgeStyle=orthogonalEdgeStyle;rounded=1;html=1;exitX=0;exitY=0;exitDx=0;exitDy=0;entryX=0;entryY=0.5;entryDx=0;entryDy=0;shadow=1;labelBackgroundColor=default;fontFamily=Helvetica;fontSize=11;fontColor=default;endArrow=classic;endFill=1;strokeColor=#FFFFFF;strokeWidth=1;" parent="1" source="68" target="40" edge="1">
                    <mxGeometry relative="1" as="geometry">
                        <Array as="points">
                            <mxPoint x="750" y="622"/>
                            <mxPoint x="750" y="155"/>
                        </Array>
                    </mxGeometry>
                </mxCell>
                <mxCell id="113" value="@down" style="edgeLabel;html=1;align=center;verticalAlign=middle;resizable=0;points=[];fontSize=11;fontFamily=Helvetica;fontColor=default;" parent="101" vertex="1" connectable="0">
                    <mxGeometry x="0.24" y="1" relative="1" as="geometry">
                        <mxPoint x="31" y="289" as="offset"/>
                    </mxGeometry>
                </mxCell>
                <mxCell id="127" style="edgeStyle=none;html=1;exitX=0;exitY=1;exitDx=0;exitDy=0;entryX=1;entryY=0.5;entryDx=0;entryDy=0;" parent="1" source="68" target="6" edge="1">
                    <mxGeometry relative="1" as="geometry"/>
                </mxCell>
                <mxCell id="128" value="@escape" style="edgeLabel;html=1;align=center;verticalAlign=middle;resizable=0;points=[];rotation=-30;" parent="127" vertex="1" connectable="0">
                    <mxGeometry x="-0.0575" y="-1" relative="1" as="geometry">
                        <mxPoint x="159" y="-45" as="offset"/>
                    </mxGeometry>
                </mxCell>
                <mxCell id="132" style="edgeStyle=orthogonalEdgeStyle;html=1;exitX=1;exitY=1;exitDx=0;exitDy=0;entryX=0.5;entryY=1;entryDx=0;entryDy=0;" parent="1" source="68" target="129" edge="1">
                    <mxGeometry relative="1" as="geometry">
                        <Array as="points">
                            <mxPoint x="913" y="678"/>
                            <mxPoint x="913" y="920"/>
                            <mxPoint x="80" y="920"/>
                        </Array>
                    </mxGeometry>
                </mxCell>
                <mxCell id="133" value="@blur" style="edgeLabel;html=1;align=center;verticalAlign=middle;resizable=0;points=[];" parent="132" vertex="1" connectable="0">
                    <mxGeometry x="-0.9567" relative="1" as="geometry">
                        <mxPoint x="-7" y="-1" as="offset"/>
                    </mxGeometry>
                </mxCell>
                <mxCell id="154" style="edgeStyle=orthogonalEdgeStyle;html=1;exitX=1;exitY=0.5;exitDx=0;exitDy=0;entryX=0.5;entryY=1;entryDx=0;entryDy=0;" parent="1" source="68" target="151" edge="1">
                    <mxGeometry relative="1" as="geometry">
                        <Array as="points">
                            <mxPoint x="964" y="650"/>
                            <mxPoint x="964" y="940"/>
                            <mxPoint x="-40" y="940"/>
                        </Array>
                    </mxGeometry>
                </mxCell>
                <mxCell id="155" value="@clear" style="edgeLabel;html=1;align=center;verticalAlign=middle;resizable=0;points=[];" parent="154" vertex="1" connectable="0">
                    <mxGeometry x="-0.9772" y="-2" relative="1" as="geometry">
                        <mxPoint x="11" y="-2" as="offset"/>
                    </mxGeometry>
                </mxCell>
                <mxCell id="184" style="edgeStyle=orthogonalEdgeStyle;html=1;exitX=0.5;exitY=1;exitDx=0;exitDy=0;entryX=0;entryY=0.5;entryDx=0;entryDy=0;" parent="1" source="68" target="182" edge="1">
                    <mxGeometry relative="1" as="geometry"/>
                </mxCell>
                <mxCell id="185" value="@enter" style="edgeLabel;html=1;align=center;verticalAlign=middle;resizable=0;points=[];" parent="184" vertex="1" connectable="0">
                    <mxGeometry x="-0.5247" y="-1" relative="1" as="geometry">
                        <mxPoint x="1" y="-73" as="offset"/>
                    </mxGeometry>
                </mxCell>
                <mxCell id="68" value="S3" style="ellipse;whiteSpace=wrap;html=1;aspect=fixed;" parent="1" vertex="1">
                    <mxGeometry x="790" y="610" width="80" height="80" as="geometry"/>
                </mxCell>
                <mxCell id="207" style="edgeStyle=orthogonalEdgeStyle;html=1;exitX=1;exitY=0.5;exitDx=0;exitDy=0;entryX=1;entryY=0;entryDx=0;entryDy=0;" parent="1" source="103" target="68" edge="1">
                    <mxGeometry relative="1" as="geometry">
                        <Array as="points">
                            <mxPoint x="1065" y="155"/>
                            <mxPoint x="1065" y="590"/>
                            <mxPoint x="858" y="590"/>
                        </Array>
                    </mxGeometry>
                </mxCell>
                <mxCell id="103" value="highlight next item" style="rounded=0;whiteSpace=wrap;html=1;fontFamily=Helvetica;fontSize=12;fontColor=rgb(240, 240, 240);align=center;strokeColor=rgb(240, 240, 240);fillColor=rgb(42, 42, 42);" parent="1" vertex="1">
                    <mxGeometry x="905" y="115" width="80" height="80" as="geometry"/>
                </mxCell>
                <mxCell id="206" style="edgeStyle=orthogonalEdgeStyle;html=1;exitX=1;exitY=0.5;exitDx=0;exitDy=0;entryX=1;entryY=0;entryDx=0;entryDy=0;" parent="1" source="104" target="68" edge="1">
                    <mxGeometry relative="1" as="geometry">
                        <Array as="points">
                            <mxPoint x="1065" y="255"/>
                            <mxPoint x="1065" y="590"/>
                            <mxPoint x="858" y="590"/>
                        </Array>
                    </mxGeometry>
                </mxCell>
                <mxCell id="104" value="highlight previous item" style="rounded=0;whiteSpace=wrap;html=1;fontFamily=Helvetica;fontSize=12;fontColor=rgb(240, 240, 240);align=center;strokeColor=rgb(240, 240, 240);fillColor=rgb(42, 42, 42);" parent="1" vertex="1">
                    <mxGeometry x="905" y="215" width="80" height="80" as="geometry"/>
                </mxCell>
                <mxCell id="130" style="edgeStyle=orthogonalEdgeStyle;html=1;exitX=1;exitY=0.5;exitDx=0;exitDy=0;entryX=0;entryY=0.5;entryDx=0;entryDy=0;" parent="1" source="129" target="2" edge="1">
                    <mxGeometry relative="1" as="geometry"/>
                </mxCell>
                <mxCell id="129" value="Reset everything&lt;br&gt;but not&lt;br&gt;selected items" style="whiteSpace=wrap;html=1;aspect=fixed;" parent="1" vertex="1">
                    <mxGeometry x="40" y="560" width="80" height="80" as="geometry"/>
                </mxCell>
                <mxCell id="153" style="edgeStyle=orthogonalEdgeStyle;html=1;exitX=1;exitY=0.5;exitDx=0;exitDy=0;entryX=0.5;entryY=1;entryDx=0;entryDy=0;" parent="1" source="151" target="2" edge="1">
                    <mxGeometry relative="1" as="geometry"/>
                </mxCell>
                <mxCell id="151" value="Reset everything" style="whiteSpace=wrap;html=1;aspect=fixed;" parent="1" vertex="1">
                    <mxGeometry x="-80" y="680" width="80" height="80" as="geometry"/>
                </mxCell>
                <mxCell id="165" style="edgeStyle=none;html=1;exitX=1;exitY=0.5;exitDx=0;exitDy=0;entryX=0;entryY=0.5;entryDx=0;entryDy=0;" parent="1" source="163" target="208" edge="1">
                    <mxGeometry relative="1" as="geometry">
                        <mxPoint x="409" y="340.0000000000001" as="targetPoint"/>
                    </mxGeometry>
                </mxCell>
                <mxCell id="166" value="no" style="edgeLabel;html=1;align=center;verticalAlign=middle;resizable=0;points=[];" parent="165" vertex="1" connectable="0">
                    <mxGeometry x="-0.787" y="-2" relative="1" as="geometry">
                        <mxPoint y="-12" as="offset"/>
                    </mxGeometry>
                </mxCell>
                <mxCell id="163" value="is disabled" style="rhombus;whiteSpace=wrap;html=1;fontFamily=Helvetica;fontSize=12;fontColor=rgb(240, 240, 240);align=center;strokeColor=rgb(240, 240, 240);fillColor=rgb(42, 42, 42);" parent="1" vertex="1">
                    <mxGeometry x="160" y="9" width="80" height="80" as="geometry"/>
                </mxCell>
                <mxCell id="170" style="edgeStyle=none;html=1;entryX=0;entryY=0.5;entryDx=0;entryDy=0;" parent="1" edge="1">
                    <mxGeometry relative="1" as="geometry">
                        <mxPoint x="409" y="340" as="sourcePoint"/>
                        <mxPoint x="409" y="340.0000000000001" as="targetPoint"/>
                    </mxGeometry>
                </mxCell>
                <mxCell id="172" style="edgeStyle=none;html=1;exitX=0.5;exitY=1;exitDx=0;exitDy=0;entryX=0.75;entryY=0;entryDx=0;entryDy=0;" parent="1" source="171" target="151" edge="1">
                    <mxGeometry relative="1" as="geometry"/>
                </mxCell>
                <mxCell id="173" value="no" style="edgeLabel;html=1;align=center;verticalAlign=middle;resizable=0;points=[];" parent="172" vertex="1" connectable="0">
                    <mxGeometry x="0.0182" relative="1" as="geometry">
                        <mxPoint as="offset"/>
                    </mxGeometry>
                </mxCell>
                <mxCell id="171" value="is disabled" style="rhombus;whiteSpace=wrap;html=1;" parent="1" vertex="1">
                    <mxGeometry x="-60" y="545" width="80" height="80" as="geometry"/>
                </mxCell>
                <mxCell id="175" value="&lt;h1&gt;Legend&lt;/h1&gt;&lt;p&gt;S1: Focused with closed menu&lt;br&gt;&lt;span&gt;S2: Focused with opened menu&lt;br&gt;&lt;/span&gt;&lt;span&gt;S3: Focused with opened menu and selected item&lt;/span&gt;&lt;/p&gt;" style="text;html=1;strokeColor=none;fillColor=none;spacing=5;spacingTop=-20;whiteSpace=wrap;overflow=hidden;rounded=0;" parent="1" vertex="1">
                    <mxGeometry x="-107" y="1018" width="190" height="120" as="geometry"/>
                </mxCell>
                <mxCell id="180" value="no" style="edgeStyle=none;html=1;exitX=0.5;exitY=1;exitDx=0;exitDy=0;entryX=0.5;entryY=0;entryDx=0;entryDy=0;" parent="1" source="178" target="179" edge="1">
                    <mxGeometry relative="1" as="geometry"/>
                </mxCell>
                <mxCell id="192" style="edgeStyle=orthogonalEdgeStyle;html=1;exitX=1;exitY=0.5;exitDx=0;exitDy=0;entryX=0;entryY=0.5;entryDx=0;entryDy=0;" parent="1" source="178" target="191" edge="1">
                    <mxGeometry relative="1" as="geometry"/>
                </mxCell>
                <mxCell id="193" value="yes" style="edgeLabel;html=1;align=center;verticalAlign=middle;resizable=0;points=[];" parent="192" vertex="1" connectable="0">
                    <mxGeometry x="-0.2174" relative="1" as="geometry">
                        <mxPoint as="offset"/>
                    </mxGeometry>
                </mxCell>
                <mxCell id="178" value="is multiple" style="rhombus;whiteSpace=wrap;html=1;" parent="1" vertex="1">
                    <mxGeometry x="1074" y="660" width="80" height="80" as="geometry"/>
                </mxCell>
                <mxCell id="190" style="edgeStyle=orthogonalEdgeStyle;html=1;exitX=0;exitY=0.5;exitDx=0;exitDy=0;entryX=1;entryY=0.5;entryDx=0;entryDy=0;" parent="1" source="179" target="6" edge="1">
                    <mxGeometry relative="1" as="geometry"/>
                </mxCell>
                <mxCell id="179" value="select clicked&lt;br&gt;item" style="whiteSpace=wrap;html=1;aspect=fixed;" parent="1" vertex="1">
                    <mxGeometry x="1080.5" y="766.5" width="67" height="67" as="geometry"/>
                </mxCell>
                <mxCell id="187" style="edgeStyle=orthogonalEdgeStyle;html=1;exitX=0.5;exitY=1;exitDx=0;exitDy=0;entryX=0.5;entryY=0;entryDx=0;entryDy=0;" parent="1" source="182" target="186" edge="1">
                    <mxGeometry relative="1" as="geometry"/>
                </mxCell>
                <mxCell id="188" value="no" style="edgeLabel;html=1;align=center;verticalAlign=middle;resizable=0;points=[];" parent="187" vertex="1" connectable="0">
                    <mxGeometry x="-0.2169" relative="1" as="geometry">
                        <mxPoint as="offset"/>
                    </mxGeometry>
                </mxCell>
                <mxCell id="195" style="edgeStyle=orthogonalEdgeStyle;html=1;exitX=1;exitY=0.5;exitDx=0;exitDy=0;entryX=0;entryY=0.5;entryDx=0;entryDy=0;" parent="1" source="182" target="194" edge="1">
                    <mxGeometry relative="1" as="geometry"/>
                </mxCell>
                <mxCell id="197" value="yes" style="edgeLabel;html=1;align=center;verticalAlign=middle;resizable=0;points=[];" parent="195" vertex="1" connectable="0">
                    <mxGeometry x="-0.4456" y="-1" relative="1" as="geometry">
                        <mxPoint as="offset"/>
                    </mxGeometry>
                </mxCell>
                <mxCell id="182" value="is multiple" style="rhombus;whiteSpace=wrap;html=1;" parent="1" vertex="1">
                    <mxGeometry x="1074" y="852" width="80" height="80" as="geometry"/>
                </mxCell>
                <mxCell id="189" style="edgeStyle=orthogonalEdgeStyle;html=1;exitX=0;exitY=0.5;exitDx=0;exitDy=0;entryX=1;entryY=1;entryDx=0;entryDy=0;" parent="1" source="186" target="6" edge="1">
                    <mxGeometry relative="1" as="geometry"/>
                </mxCell>
                <mxCell id="186" value="select highlighted&lt;br&gt;item" style="whiteSpace=wrap;html=1;aspect=fixed;" parent="1" vertex="1">
                    <mxGeometry x="1078" y="965" width="72" height="72" as="geometry"/>
                </mxCell>
                <mxCell id="199" style="edgeStyle=orthogonalEdgeStyle;html=1;exitX=1;exitY=0.5;exitDx=0;exitDy=0;entryX=0.5;entryY=0;entryDx=0;entryDy=0;" parent="1" source="191" target="3" edge="1">
                    <mxGeometry relative="1" as="geometry">
                        <Array as="points">
                            <mxPoint x="1336" y="700"/>
                            <mxPoint x="1336" y="-151"/>
                            <mxPoint x="360" y="-151"/>
                        </Array>
                        <mxPoint x="369" y="336" as="targetPoint"/>
                    </mxGeometry>
                </mxCell>
                <mxCell id="191" value="toggle selection&lt;br&gt;of clicked&lt;br&gt;item" style="whiteSpace=wrap;html=1;aspect=fixed;" parent="1" vertex="1">
                    <mxGeometry x="1221" y="660" width="80" height="80" as="geometry"/>
                </mxCell>
                <mxCell id="196" value="" style="edgeStyle=orthogonalEdgeStyle;html=1;exitX=1;exitY=0.5;exitDx=0;exitDy=0;entryX=0.5;entryY=0;entryDx=0;entryDy=0;" parent="1" source="194" target="3" edge="1">
                    <mxGeometry relative="1" as="geometry">
                        <mxPoint x="389" y="833" as="targetPoint"/>
                        <Array as="points">
                            <mxPoint x="1336" y="892"/>
                            <mxPoint x="1336" y="-151"/>
                            <mxPoint x="360" y="-151"/>
                        </Array>
                    </mxGeometry>
                </mxCell>
                <mxCell id="194" value="toggle selection&lt;br&gt;of highlighted&lt;br&gt;item" style="whiteSpace=wrap;html=1;aspect=fixed;" parent="1" vertex="1">
                    <mxGeometry x="1221" y="852" width="80" height="80" as="geometry"/>
                </mxCell>
                <mxCell id="209" style="edgeStyle=orthogonalEdgeStyle;html=1;exitX=1;exitY=0.5;exitDx=0;exitDy=0;entryX=1;entryY=0;entryDx=0;entryDy=0;" parent="1" source="208" target="68" edge="1">
                    <mxGeometry relative="1" as="geometry">
                        <Array as="points">
                            <mxPoint x="1065" y="49"/>
                            <mxPoint x="1065" y="589"/>
                            <mxPoint x="858" y="589"/>
                        </Array>
                    </mxGeometry>
                </mxCell>
                <mxCell id="210" style="html=1;exitX=0.5;exitY=0;exitDx=0;exitDy=0;endArrow=none;endFill=0;dashed=1;strokeWidth=2;" parent="1" source="208" target="36" edge="1">
                    <mxGeometry relative="1" as="geometry"/>
                </mxCell>
                <mxCell id="208" value="if filtereditems is empty -&amp;gt;&lt;br&gt;filtereditems = items&amp;nbsp;" style="rounded=0;whiteSpace=wrap;html=1;fontFamily=Helvetica;fontSize=12;fontColor=rgb(240, 240, 240);align=center;strokeColor=rgb(240, 240, 240);fillColor=rgb(42, 42, 42);" parent="1" vertex="1">
                    <mxGeometry x="785" y="9" width="90" height="80" as="geometry"/>
                </mxCell>
                <mxCell id="216" style="edgeStyle=orthogonalEdgeStyle;html=1;exitX=0.5;exitY=0;exitDx=0;exitDy=0;entryX=1;entryY=1;entryDx=0;entryDy=0;" parent="1" source="212" target="3" edge="1">
                    <mxGeometry relative="1" as="geometry">
                        <Array as="points">
                            <mxPoint x="422" y="405"/>
                        </Array>
                    </mxGeometry>
                </mxCell>
                <mxCell id="219" style="html=1;exitX=1;exitY=0.5;exitDx=0;exitDy=0;strokeWidth=2;dashed=1;endArrow=none;endFill=0;" parent="1" source="212" target="36" edge="1">
                    <mxGeometry relative="1" as="geometry"/>
                </mxCell>
                <mxCell id="212" value="highlight &lt;br&gt;relevant&lt;br&gt;item" style="whiteSpace=wrap;html=1;aspect=fixed;" parent="1" vertex="1">
                    <mxGeometry x="382" y="421" width="80" height="80" as="geometry"/>
                </mxCell>
                <mxCell id="222" style="edgeStyle=orthogonalEdgeStyle;html=1;exitX=0.5;exitY=0;exitDx=0;exitDy=0;entryX=0.5;entryY=1;entryDx=0;entryDy=0;endArrow=classic;endFill=1;strokeWidth=1;" parent="1" source="221" target="212" edge="1">
                    <mxGeometry relative="1" as="geometry"/>
                </mxCell>
                <mxCell id="224" value="yes" style="edgeLabel;html=1;align=center;verticalAlign=middle;resizable=0;points=[];" parent="222" vertex="1" connectable="0">
                    <mxGeometry x="0.0297" relative="1" as="geometry">
                        <mxPoint as="offset"/>
                    </mxGeometry>
                </mxCell>
                <mxCell id="226" style="edgeStyle=orthogonalEdgeStyle;html=1;exitX=1;exitY=0.5;exitDx=0;exitDy=0;entryX=0;entryY=0.5;entryDx=0;entryDy=0;endArrow=classic;endFill=1;strokeWidth=1;" parent="1" source="221" target="225" edge="1">
                    <mxGeometry relative="1" as="geometry"/>
                </mxCell>
                <mxCell id="227" value="no" style="edgeLabel;html=1;align=center;verticalAlign=middle;resizable=0;points=[];" parent="226" vertex="1" connectable="0">
                    <mxGeometry x="-0.025" relative="1" as="geometry">
                        <mxPoint x="-6" y="-6" as="offset"/>
                    </mxGeometry>
                </mxCell>
                <mxCell id="221" value="is multiple" style="rhombus;whiteSpace=wrap;html=1;" parent="1" vertex="1">
                    <mxGeometry x="418" y="539" width="80" height="80" as="geometry"/>
                </mxCell>
                <mxCell id="228" style="edgeStyle=orthogonalEdgeStyle;html=1;exitX=0.5;exitY=0;exitDx=0;exitDy=0;entryX=1;entryY=0.5;entryDx=0;entryDy=0;endArrow=classic;endFill=1;strokeWidth=1;" parent="1" source="225" target="212" edge="1">
                    <mxGeometry relative="1" as="geometry"/>
                </mxCell>
                <mxCell id="225" value="clear selection if search empty" style="whiteSpace=wrap;html=1;aspect=fixed;" parent="1" vertex="1">
                    <mxGeometry x="545" y="539" width="80" height="80" as="geometry"/>
                </mxCell>
                <mxCell id="231" value="Ich brauche Focusout event für blur&lt;br&gt;und gleichzeitig darf item click kein focus out sein" style="text;html=1;align=center;verticalAlign=middle;resizable=0;points=[];autosize=1;strokeColor=none;fillColor=none;" parent="1" vertex="1">
                    <mxGeometry x="1052" y="467" width="272" height="32" as="geometry"/>
                </mxCell>
            </root>
        </mxGraphModel>
    </diagram>
</mxfile>